<svg xmlns="http://www.w3.org/2000/svg" viewBox="0 0 18 18"><defs><style>.a{fill:#f80000;}.b{fill:#fff;}</style></defs><g transform="translate(-429 -534)"><circle class="a" cx="9" cy="9" r="9" transform="translate(429 534)"/><g transform="translate(433.547 537.993)"><path class="b" d="M4.409,2.214c-.976.976-1.893,1.9-2.822,2.815A.916.916,0,0,1,.25,5.083.878.878,0,0,1,.19,3.825Q1.965,2.02,3.761.254a.914.914,0,0,1,1.2-.047,1.7,1.7,0,0,1,.2.174c1.1,1.1,2.207,2.2,3.3,3.31A.928.928,0,0,1,8.141,5.3a.938.938,0,0,1-1-.288C6.329,4.187,5.5,3.357,4.67,2.528,4.583,2.441,4.516,2.341,4.409,2.214Z" transform="translate(0 0)"/><path class="b" d="M4.641,72.723c-.776.776-1.525,1.518-2.274,2.267-.187.187-.375.381-.568.568a.91.91,0,0,1-1.291.013.892.892,0,0,1-.02-1.291c.381-.408.782-.789,1.177-1.184q1.093-1.1,2.2-2.194A.981.981,0,0,1,5.41,70.9q1.645,1.635,3.284,3.284a.926.926,0,1,1-1.3,1.291C6.48,74.569,5.577,73.66,4.641,72.723Z" transform="translate(-0.251 -65.802)"/></g></g></svg>