<svg xmlns="http://www.w3.org/2000/svg" viewBox="0 0 32.857 30"><defs><style>.a{fill:#fff;}</style></defs><g transform="translate(-1.6 -3.199)"><path class="a" d="M2.143,30A2.172,2.172,0,0,1,0,27.857V4.911A2.173,2.173,0,0,1,2.143,2.768H4.911V0H6.7V2.858H26.071V0h1.786V2.768h2.857a2.116,2.116,0,0,1,2.143,2.143V27.857A2.173,2.173,0,0,1,30.714,30ZM1.7,26.161A2.174,2.174,0,0,0,3.838,28.3H28.928a2.173,2.173,0,0,0,2.143-2.143V11.429H1.7Z" transform="translate(1.6 3.199)"/><g transform="translate(5.975 17.039)"><rect class="a" width="4.464" height="4.464"/><rect class="a" width="4.464" height="4.464" transform="translate(6.25)"/><rect class="a" width="4.464" height="4.464" transform="translate(13.393)"/><rect class="a" width="4.464" height="4.464" transform="translate(19.643)"/><rect class="a" width="4.464" height="4.464" transform="translate(0 6.607)"/><rect class="a" width="4.464" height="4.464" transform="translate(6.25 6.607)"/><rect class="a" width="4.464" height="4.464" transform="translate(13.393 6.607)"/></g></g></svg>