<?xml version="1.0" encoding="utf-8"?>
<!-- Generator: Adobe Illustrator 16.0.0, SVG Export Plug-In . SVG Version: 6.00 Build 0)  -->
<!DOCTYPE svg PUBLIC "-//W3C//DTD SVG 1.1//EN" "http://www.w3.org/Graphics/SVG/1.1/DTD/svg11.dtd">
<svg version="1.1" id="Layer_1" xmlns="http://www.w3.org/2000/svg" xmlns:xlink="http://www.w3.org/1999/xlink" x="0px" y="0px"
	 width="300px" height="300px" viewBox="0 0 300 300" enable-background="new 0 0 300 300" xml:space="preserve">
<g>
	<path fill="#FFFFFF" stroke="#1178D3" stroke-width="5" stroke-miterlimit="10" d="M93.305,197.722
		c0-47.642,38.621-86.263,86.263-86.263c47.643,0,86.263,38.621,86.263,86.263c0,10.954-2.124,21.387-5.847,31.026
		c0,0-9.968,29.514,5.847,52.246l-76.527,2.404c-3.201,0.357-12.001,0.459-13.138,0.416l-1.773-0.096
		C129.174,281.031,93.305,243.615,93.305,197.722z"/>
	<path fill="#B3D6F2" stroke="#1178D3" stroke-width="5" stroke-miterlimit="10" d="M214.707,131.097
		c0-47.642-38.62-86.263-86.263-86.263c-47.642,0-86.262,38.621-86.262,86.263c0,10.954,2.123,21.386,5.848,31.026
		c0,0,9.966,29.515-5.848,52.246l76.528,2.404c3.2,0.358,12,0.459,13.135,0.417l1.775-0.096
		C178.838,214.406,214.707,176.991,214.707,131.097z"/>
	<circle fill="#FFFFFF" stroke="#1178D3" stroke-width="5" stroke-miterlimit="10" cx="90.585" cy="118.024" r="11.974"/>
	<circle fill="#FFFFFF" stroke="#1178D3" stroke-width="5" stroke-miterlimit="10" cx="128.445" cy="118.024" r="11.974"/>
	<circle fill="#FFFFFF" stroke="#1178D3" stroke-width="5" stroke-miterlimit="10" cx="166.305" cy="118.024" r="11.974"/>
	<path fill="#7EC7FC" stroke="#1178D3" stroke-width="5" stroke-miterlimit="10" d="M272.438,145.912
		c0,12.941-10.496,23.436-23.436,23.436c-12.945,0-23.441-10.495-23.441-23.436c0-12.945,10.496-23.44,23.441-23.44
		C261.941,122.471,272.438,132.966,272.438,145.912z"/>
	<line fill="none" stroke="#1178D3" stroke-width="5" stroke-miterlimit="10" x1="76.778" y1="16.176" x2="76.778" y2="38.946"/>
	<line fill="none" stroke="#1178D3" stroke-width="5" stroke-miterlimit="10" x1="42.226" y1="27.558" x2="58.451" y2="44.185"/>
	<line fill="none" stroke="#1178D3" stroke-width="5" stroke-miterlimit="10" x1="27.563" y1="60.938" x2="50.338" y2="60.938"/>
</g>
</svg>
