<svg xmlns="http://www.w3.org/2000/svg" viewBox="0 0 30 33.272"><defs><style>.a{fill:#fff;}.b{fill:none;}</style></defs><g transform="translate(-3.901 -2.2)"><path class="a" d="M12.787,24.991a.467.467,0,0,1,0-.748l.748-.748a.569.569,0,0,1,.748,0l.093.093,2.9,3.084a.284.284,0,0,0,.374,0l7.1-7.383h.093a.569.569,0,0,1,.748,0l.748.748a.569.569,0,0,1,0,.748h0l-8.5,8.785a.467.467,0,0,1-.748,0l-4.112-4.486A.326.326,0,0,1,12.787,24.991Z" transform="translate(-0.569 -1.109)"/><path class="b" d="M11.8,6.966v3.458a.688.688,0,0,0,.748.748H26.286a.688.688,0,0,0,.748-.748V6.966a.688.688,0,0,0-.748-.748H23.2V3.7a1.476,1.476,0,0,0-1.5-1.5H17.127a1.476,1.476,0,0,0-1.5,1.5v2.43H12.548A.824.824,0,0,0,11.8,6.966Z" transform="translate(-0.517)"/><path class="a" d="M1.681,33.271A1.674,1.674,0,0,1,0,31.587V7.756A1.674,1.674,0,0,1,1.681,6.073H6.729V5.514a1.475,1.475,0,0,1,1.5-1.495h2.335V2.243A2.273,2.273,0,0,1,12.8,0h4.581a2.273,2.273,0,0,1,2.243,2.243V3.923h2.338a1.477,1.477,0,0,1,1.5,1.495V5.98h4.951A1.658,1.658,0,0,1,30,7.664V31.587a1.675,1.675,0,0,1-1.683,1.683ZM1.87,9.437V29.812a1.675,1.675,0,0,0,1.68,1.683h22.9a1.675,1.675,0,0,0,1.683-1.683V9.437a1.675,1.675,0,0,0-1.683-1.681H23.365V8.878a1.477,1.477,0,0,1-1.5,1.5H8.13a1.476,1.476,0,0,1-1.5-1.5V7.756H3.55A1.674,1.674,0,0,0,1.87,9.437ZM21.963,5.418ZM11.869,5.326Z" transform="translate(3.901 2.201)"/></g></svg>