<?xml version="1.0" encoding="UTF-8" standalone="no"?>
<!-- Created with Inkscape (http://www.inkscape.org/) -->

<svg
   xmlns:dc="http://purl.org/dc/elements/1.1/"
   xmlns:cc="http://creativecommons.org/ns#"
   xmlns:rdf="http://www.w3.org/1999/02/22-rdf-syntax-ns#"
   xmlns:svg="http://www.w3.org/2000/svg"
   xmlns="http://www.w3.org/2000/svg"
   xmlns:sodipodi="http://sodipodi.sourceforge.net/DTD/sodipodi-0.dtd"
   xmlns:inkscape="http://www.inkscape.org/namespaces/inkscape"
   id="svg2"
   version="1.1"
   inkscape:version="0.48.4 r9939"
   width="18"
   height="18"
   sodipodi:docname="Sélection_014.png">
  <metadata
     id="metadata8">
    <rdf:RDF>
      <cc:Work
         rdf:about="">
        <dc:format>image/svg+xml</dc:format>
        <dc:type
           rdf:resource="http://purl.org/dc/dcmitype/StillImage" />
        <dc:title></dc:title>
      </cc:Work>
    </rdf:RDF>
  </metadata>
  <defs
     id="defs6" />
  <sodipodi:namedview
     pagecolor="#ffffff"
     bordercolor="#666666"
     borderopacity="1"
     objecttolerance="10"
     gridtolerance="10"
     guidetolerance="10"
     inkscape:pageopacity="0"
     inkscape:pageshadow="2"
     inkscape:window-width="1920"
     inkscape:window-height="1014"
     id="namedview4"
     showgrid="false"
     inkscape:zoom="13.622629"
     inkscape:cx="14.32073"
     inkscape:cy="12.277407"
     inkscape:window-x="0"
     inkscape:window-y="27"
     inkscape:window-maximized="1"
     inkscape:current-layer="svg2" />
  <g
     id="g3015"
     transform="matrix(1.0006984,0,0,1.0006984,31.513714,-5.837282)"
     style="fill:#000000">
    <path
       style="fill:#000000;fill-opacity:1;fill-rule:evenodd;stroke:none"
       d="M 1.25 1.46875 C 0.55816748 1.46875 0 2.0269175 0 2.71875 L 0 13.3125 C 0 14.004333 0.55816748 14.5625 1.25 14.5625 L 13.75 14.5625 C 14.441833 14.5625 15 14.004333 15 13.3125 L 15 2.71875 C 15 2.0269175 14.441833 1.46875 13.75 1.46875 L 1.25 1.46875 z M 0.96875 4.46875 L 14.03125 4.46875 L 14.03125 13.65625 L 0.96875 13.65625 L 0.96875 4.46875 z "
       transform="matrix(0.99930209,0,0,0.99930209,-31.49172,5.8332081)"
       id="rect2987" />
    <rect
       ry="0"
       y="12.296363"
       x="-29.362909"
       height="1.0277019"
       width="3.0096982"
       id="rect2991"
       style="fill:#000000;fill-opacity:1;fill-rule:evenodd;stroke:none" />
    <rect
       style="fill:#000000;fill-opacity:1;fill-rule:evenodd;stroke:none"
       id="rect2993"
       width="3.0096982"
       height="1.0277019"
       x="-29.362909"
       y="15.526283"
       ry="0" />
    <path
       style="fill:#000000;fill-opacity:1;fill-rule:evenodd;stroke:none"
       d="M 9.6875 5.96875 C 7.6184284 5.96875 5.9375 7.6184284 5.9375 9.6875 C 5.9375 11.756572 7.6184284 13.4375 9.6875 13.4375 C 11.756572 13.4375 13.4375 11.756572 13.4375 9.6875 C 13.4375 7.6184284 11.756572 5.96875 9.6875 5.96875 z M 9.6875 6.90625 C 11.229161 6.90625 12.5 8.1458388 12.5 9.6875 C 12.5 11.229161 11.229161 12.5 9.6875 12.5 C 8.1458388 12.5 6.90625 11.229161 6.90625 9.6875 C 6.90625 8.1458388 8.1458388 6.90625 9.6875 6.90625 z "
       transform="matrix(0.99930209,0,0,0.99930209,-31.49172,5.8332081)"
       id="path2995" />
    <path
       style="fill:#000000;fill-opacity:1;fill-rule:evenodd;stroke:none"
       d="m -20.763098,18.760339 1.082757,1.082757 3.115689,3.115689 0.419845,0.419845 c 0.603883,0.603883 1.583728,0.581786 2.187612,-0.0221 0.603883,-0.603883 0.603883,-1.561631 0,-2.165515 l -0.419845,-0.419844 -3.115689,-3.115689 -1.082757,-1.082758 -1.082758,1.082758 -1.104854,1.104854 z"
       id="rect2999"
       inkscape:connector-curvature="0" />
  </g>
</svg>
