<?xml version="1.0" encoding="UTF-8" standalone="no"?>
<!-- Created with Inkscape (http://www.inkscape.org/) -->

<svg
   xmlns:dc="http://purl.org/dc/elements/1.1/"
   xmlns:cc="http://creativecommons.org/ns#"
   xmlns:rdf="http://www.w3.org/1999/02/22-rdf-syntax-ns#"
   xmlns:svg="http://www.w3.org/2000/svg"
   xmlns="http://www.w3.org/2000/svg"
   xmlns:sodipodi="http://sodipodi.sourceforge.net/DTD/sodipodi-0.dtd"
   xmlns:inkscape="http://www.inkscape.org/namespaces/inkscape"
   width="40"
   height="40"
   id="svg2"
   version="1.1"
   inkscape:version="0.48.4 r9939"
   sodipodi:docname="exclamation.svg">
  <defs
     id="defs4" />
  <sodipodi:namedview
     id="base"
     pagecolor="#ffffff"
     bordercolor="#666666"
     borderopacity="1.0"
     inkscape:pageopacity="0.0"
     inkscape:pageshadow="2"
     inkscape:zoom="7.9195959"
     inkscape:cx="36.516175"
     inkscape:cy="34.652601"
     inkscape:document-units="px"
     inkscape:current-layer="layer1"
     showgrid="false"
     inkscape:window-width="1920"
     inkscape:window-height="1014"
     inkscape:window-x="0"
     inkscape:window-y="27"
     inkscape:window-maximized="1" />
  <metadata
     id="metadata7">
    <rdf:RDF>
      <cc:Work
         rdf:about="">
        <dc:format>image/svg+xml</dc:format>
        <dc:type
           rdf:resource="http://purl.org/dc/dcmitype/StillImage" />
        <dc:title></dc:title>
      </cc:Work>
    </rdf:RDF>
  </metadata>
  <g
     inkscape:label="Calque 1"
     inkscape:groupmode="layer"
     id="layer1"
     transform="translate(0,-1012.3622)">
    <path
       style="fill:#a94442;fill-opacity:1;fill-rule:evenodd;stroke:none"
       d="m 20,1012.3936 c -11.0417335,0 -20,8.9583 -20,20.0001 0,11.0417 8.9582665,19.9685 20,19.9685 11.041734,0 20,-8.9268 20,-19.9685 0,-11.0418 -8.958266,-20.0001 -20,-20.0001 z m 0.03145,5.8899 c 1.209448,0 2.173228,0.9952 2.173228,2.2047 l 0,16.2834 c 0,1.2498 -0.96378,2.2363 -2.173228,2.2363 -1.209449,0 -2.236221,-0.9865 -2.236221,-2.2363 l 0,-16.2834 c 0,-1.2095 1.026772,-2.2047 2.236221,-2.2047 z m 0,22.9605 c 1.209448,0 2.173228,1.0269 2.173228,2.2363 l 0,0.7874 c 0,1.2497 -0.96378,2.2362 -2.173228,2.2362 -1.209449,0 -2.236221,-0.9865 -2.236221,-2.2362 l 0,-0.7874 c 0,-1.2094 1.026772,-2.2363 2.236221,-2.2363 z"
       id="path2989"
       inkscape:connector-curvature="0" />
  </g>
</svg>
