<?xml version="1.0" encoding="UTF-8" standalone="no"?>
<!-- Created with Inkscape (http://www.inkscape.org/) -->

<svg
   xmlns:dc="http://purl.org/dc/elements/1.1/"
   xmlns:cc="http://creativecommons.org/ns#"
   xmlns:rdf="http://www.w3.org/1999/02/22-rdf-syntax-ns#"
   xmlns:svg="http://www.w3.org/2000/svg"
   xmlns="http://www.w3.org/2000/svg"
   xmlns:sodipodi="http://sodipodi.sourceforge.net/DTD/sodipodi-0.dtd"
   xmlns:inkscape="http://www.inkscape.org/namespaces/inkscape"
   width="48px"
   height="48px"
   id="svg5520"
   version="1.1"
   inkscape:version="0.48.4 r9939"
   sodipodi:docname="Nouveau document 3">
  <defs
     id="defs5522" />
  <sodipodi:namedview
     id="base"
     pagecolor="#ffffff"
     bordercolor="#666666"
     borderopacity="1.0"
     inkscape:pageopacity="0.0"
     inkscape:pageshadow="2"
     inkscape:zoom="4.9497475"
     inkscape:cx="-11.367233"
     inkscape:cy="25.005947"
     inkscape:current-layer="layer1"
     showgrid="true"
     inkscape:grid-bbox="true"
     inkscape:document-units="px"
     inkscape:window-width="1350"
     inkscape:window-height="435"
     inkscape:window-x="325"
     inkscape:window-y="299"
     inkscape:window-maximized="0" />
  <metadata
     id="metadata5525">
    <rdf:RDF>
      <cc:Work
         rdf:about="">
        <dc:format>image/svg+xml</dc:format>
        <dc:type
           rdf:resource="http://purl.org/dc/dcmitype/StillImage" />
        <dc:title></dc:title>
      </cc:Work>
    </rdf:RDF>
  </metadata>
  <g
     id="layer1"
     inkscape:label="Layer 1"
     inkscape:groupmode="layer">
    <path
       id="path4-2"
       d="m 38.168733,15.895342 -0.116954,0.0025 c -0.279195,0 -0.558886,0.03732 -0.833602,0.09207 -0.952295,0.186627 -1.832179,0.642246 -2.626962,1.186724 -0.151791,0.104511 -0.300346,0.211511 -0.447159,0.321721 -0.852512,0.643241 -1.627638,1.385271 -2.359713,2.161142 -0.87665,0.929428 -1.692832,1.914296 -2.483136,2.917629 l -1.108316,1.450939 -0.522556,0.684822 c -0.773383,1.037124 -1.538306,2.080494 -2.309947,3.118639 -0.576803,0.77388 -1.157338,1.544775 -1.752304,2.305243 l -0.469305,0.582003 -0.903773,1.120534 c -0.351605,0.420259 -0.708934,0.835318 -1.074226,1.24316 -0.285166,0.317515 -0.573318,0.6308 -0.86794,0.93861 -1.73837,1.817749 -3.689245,3.476739 -5.943203,4.620391 -0.282181,0.144325 -0.569089,0.278597 -0.859978,0.404109 -0.382959,0.166721 -0.773383,0.315525 -1.169033,0.447657 -0.52803,0.176673 -1.06676,0.320998 -1.612458,0.431233 -0.525044,0.107248 -1.0563102,0.18165 -1.5903122,0.221464 -0.270485,0.02488 -0.543707,0.03235 -0.815934,0.03732 -0.09953,0.0012 -0.09953,0.0012 -0.19658,0.0017 0,0 -4.70823,0 -6.947257,0 -0.30706405,0 -0.60118905,-0.121929 -0.81817405,-0.338666 -0.216487,-0.216487 -0.338666,-0.511134 -0.338666,-0.817949 0,-1.538056 0,-4.241164 0,-5.780439 0,-0.307313 0.124418,-0.602184 0.340159,-0.819194 0.216488,-0.216488 0.512354,-0.338392 0.81991505,-0.337422 2.354737,0 4.69529,0.0423 7.055252,0 0.07963,-0.0025 0.156767,0 0.236395,0 0.231417,-0.02488 0.462586,-0.04977 0.690271,-0.09729 0.9687192,-0.204046 1.8615432,-0.676337 2.6682702,-1.237462 0.184138,-0.129395 0.365789,-0.262273 0.543458,-0.400353 0.859729,-0.668647 1.642816,-1.432574 2.383104,-2.229845 0.878889,-0.946822 1.699302,-1.946646 2.494582,-2.963888 l 0.856992,-1.129965 0.985889,-1.300916 c 0.632044,-0.853483 1.2616,-1.709007 1.895136,-2.561768 0.576056,-0.772885 1.155347,-1.543257 1.748572,-2.303228 l 0.426008,-0.527781 1.060042,-1.313358 c 0.351357,-0.418791 0.708934,-0.832108 1.074723,-1.238457 0.285167,-0.315997 0.573816,-0.627565 0.868687,-0.933882 1.740858,-1.808293 3.697706,-3.454593 5.958134,-4.5748535 C 32.392,9.1388463 32.67841,9.0056692 32.970295,8.8830427 33.354996,8.7212992 33.746664,8.5762526 34.144055,8.4488236 34.674076,8.279615 35.21455,8.1415109 35.761491,8.0384927 36.553785,7.889191 37.357526,7.8170285 38.163755,7.8145402 l 0,0 0,-4.626387 9.831269,8.6746778 -9.831269,8.674703 0,-4.627358 z m 0,16.193487 0,-4.626363 L 48,36.137169 l -9.831267,8.674678 0,-4.626387 0,0 c -0.807724,0 -1.613206,-0.0744 -2.406993,-0.223953 -0.547938,-0.102022 -1.089653,-0.239131 -1.620918,-0.40936 -0.398637,-0.126658 -0.791549,-0.272227 -1.177245,-0.433473 -0.293875,-0.121929 -0.58153,-0.254111 -0.865949,-0.394405 -2.212404,-1.091395 -4.137151,-2.685415 -5.851633,-4.442721 -0.297857,-0.304824 -0.589493,-0.615123 -0.876152,-0.93015 l -0.715404,-0.815933 0.783585,-0.974667 c 0.605916,-0.7749 1.197898,-1.560203 1.785897,-2.348516 0.703211,-0.9461 1.400699,-1.896405 2.103661,-2.842455 l 0.346629,-0.445193 c 0.766416,0.950803 1.537808,1.853606 2.366432,2.702361 0.700474,0.717668 1.443001,1.400972 2.256198,1.989968 0.872668,0.63177 1.84935,1.170749 2.91636,1.37905 0.304575,0.05972 0.61363,0.08958 0.92368,0.09207 l 0.0423,0 z M 16.613547,22.12294 15.181744,20.411718 C 14.351875,19.474576 13.472986,18.57155 12.497548,17.784008 12.318386,17.639683 12.137731,17.499987 11.952099,17.365441 11.807774,17.26093 11.657975,17.15617 11.508673,17.0589 10.727576,16.54677 9.8646127,16.12773 8.9379468,15.968251 c -0.264512,-0.04454 -0.533255,-0.06967 -0.8022471,-0.07216 l -0.04728,-2.73e-4 c 0,0 -4.696036,0 -6.931829,0 -0.63876295,0 -1.15659095,-0.517829 -1.15659095,-1.156566 0,-1.539052 0,-4.244921 0,-5.7837242 0,-0.6385136 0.51733,-1.1563417 1.15609295,-1.1565656 2.34752,-0.00177 4.69529,0 7.043059,0.00122 0.1020231,9.953e-4 0.204046,0 0.306815,0 0.2704851,0 0.5414671,0.024884 0.810957,0.049767 0.531016,0.049767 1.0587973,0.1318832 1.5796113,0.2463478 0.509616,0.1119763 1.012514,0.2529171 1.505957,0.4225487 0.393659,0.1343715 0.781096,0.2873063 1.161567,0.455619 0.317515,0.1393483 0.630053,0.2915365 0.937614,0.452857 2.068576,1.0854233 3.878361,2.6050903 5.502017,4.2722933 0.296614,0.30455 0.587752,0.614849 0.873914,0.929652 l 0.758451,0.866447 -0.743023,0.926417 c -0.604175,0.773881 -1.194415,1.558436 -1.78117,2.345754 -0.701967,0.944831 -1.398459,1.893892 -2.100924,2.838723 L 16.613547,22.1155 z"
       inkscape:connector-curvature="0"
       style="fill:#ffffff;fill-opacity:1" />
  </g>
</svg>
