<?xml version="1.0" encoding="UTF-8" standalone="no"?>
<!-- Created with Inkscape (http://www.inkscape.org/) -->

<svg
   xmlns:dc="http://purl.org/dc/elements/1.1/"
   xmlns:cc="http://creativecommons.org/ns#"
   xmlns:rdf="http://www.w3.org/1999/02/22-rdf-syntax-ns#"
   xmlns:svg="http://www.w3.org/2000/svg"
   xmlns="http://www.w3.org/2000/svg"
   xmlns:sodipodi="http://sodipodi.sourceforge.net/DTD/sodipodi-0.dtd"
   xmlns:inkscape="http://www.inkscape.org/namespaces/inkscape"
   width="40"
   height="40"
   id="svg2"
   version="1.1"
   inkscape:version="0.48.4 r9939"
   sodipodi:docname="information.svg">
  <defs
     id="defs4" />
  <sodipodi:namedview
     id="base"
     pagecolor="#ffffff"
     bordercolor="#666666"
     borderopacity="1.0"
     inkscape:pageopacity="0.0"
     inkscape:pageshadow="2"
     inkscape:zoom="14.481547"
     inkscape:cx="32.071265"
     inkscape:cy="22.796235"
     inkscape:document-units="px"
     inkscape:current-layer="layer1"
     showgrid="false"
     inkscape:window-width="1920"
     inkscape:window-height="1014"
     inkscape:window-x="0"
     inkscape:window-y="27"
     inkscape:window-maximized="1" />
  <metadata
     id="metadata7">
    <rdf:RDF>
      <cc:Work
         rdf:about="">
        <dc:format>image/svg+xml</dc:format>
        <dc:type
           rdf:resource="http://purl.org/dc/dcmitype/StillImage" />
        <dc:title></dc:title>
      </cc:Work>
    </rdf:RDF>
  </metadata>
  <g
     inkscape:label="Calque 1"
     inkscape:groupmode="layer"
     id="layer1"
     transform="translate(0,-1012.3622)">
    <path
       style="fill:#31708f;fill-opacity:1;fill-rule:evenodd;stroke:none"
       d="m 20,1012.3937 c -11.04173,0 -20,8.9582 -20,20 0,11.0417 8.95827,19.9685 20,19.9685 11.04173,0 20,-8.9268 20,-19.9685 0,-11.0418 -8.95827,-20 -20,-20 z m 0,5.8897 c 1.24976,0 2.17323,0.9638 2.17323,2.1733 l 0,0.8504 c 0,1.2094 -0.92347,2.2047 -2.17323,2.2047 -1.20945,0 -2.17323,-0.9953 -2.17323,-2.2047 l 0,-0.8504 c 0,-1.2095 0.96378,-2.1733 2.17323,-2.1733 z m 0,8.0945 c 1.24976,0 2.17323,0.9147 2.17323,2.2048 l 0,15.748 c 0,1.2094 -0.92347,2.1732 -2.17323,2.1732 -1.20945,0 -2.17323,-0.9638 -2.17323,-2.1732 l 0,-15.748 c 0,-1.2901 0.96378,-2.2048 2.17323,-2.2048 z"
       id="path2989"
       inkscape:connector-curvature="0" />
  </g>
</svg>
